<svg viewBox="0 0 356 110" width="356" height="70" version="1.1" xmlns="http://www.w3.org/2000/svg"><path d="M19.301,18.721l-17.858,17.861l0,72.557l36.042,0l17.858,-17.86c9.822,-9.823 17.859,-18.04 17.859,-18.26c0,-0.314 -3.795,-0.4 -17.78,-0.4l-17.779,0l-0.006,-17.859c-0.002,-9.823 0,-25.968 0.006,-35.879c0.006,-9.911 -0.101,-18.02 -0.237,-18.02c-0.136,0 -8.282,8.037 -18.105,17.86m233.778,-1.641c-44.083,4.763 -45.124,69.555 -1.211,75.431c12.862,1.721 28.245,-4.58 34.935,-14.308l0.676,-0.984l-5.932,-5.904l-5.933,-5.904l-0.514,0.802c-7.837,12.224 -27.688,11.936 -33.959,-0.492c-8.436,-16.72 4.117,-34.794 21.343,-30.734c3.585,0.845 10.493,5.026 11.154,6.75c0.341,0.887 0.993,0.368 6.644,-5.289l5.731,-5.738l-1.089,-1.271c-7.203,-8.397 -20.554,-13.578 -31.845,-12.359m-107.798,37.92l0,36.2l19.221,0l0,-27.871l0,-27.87l28.191,0l0,55.741l19.222,0l0,-36.2l0,-36.2l-33.318,0l-33.316,0l0,36.2m148.323,0l0,36.2l17.539,-0.007c23.951,-0.01 27.302,-0.358 33.226,-3.448c14.578,-7.608 14.088,-31.794 -0.79,-38.919c-5.51,-2.639 -8.637,-3.092 -21.383,-3.106l-9.37,-0.01l0,-5.126l0,-5.125l35.879,0l0,-8.329l0,-8.33l-27.55,0l-27.551,0l0,36.2m36.73,6.885c4.568,1.356 6.563,5.549 4.584,9.637c-1.578,3.261 -4.195,3.981 -14.472,3.981l-7.62,0l0,-7.048l0,-7.048l7.949,0c6.114,0 8.324,0.111 9.559,0.478" fill="#2c2c84"></path><path d="M55.341,18.482c-9.734,9.736 -17.698,17.88 -17.698,18.1c0,0.313 3.794,0.399 17.779,0.399l17.78,0l0,72.238l18.099,-18.098l18.101,-18.098l0,-36.121l0,-36.121l-18.182,0l-18.181,0l-17.698,17.701" fill="#eb5314"></path></svg>