<svg width="103" height="17" viewBox="0 0 103 17" version="1.1" xmlns="http://www.w3.org/2000/svg"> <defs> <linearGradient x1="58.842568%" y1="96.2929688%" x2="38.9910671%" y2="-0.146354167%" id="linearGradient-1"> <stop stop-color="#F2E913" offset="14.44%"></stop> <stop stop-color="#E7E518" offset="30.37%"></stop> <stop stop-color="#CADB26" offset="58.23%"></stop> <stop stop-color="#A3CD39" offset="89.1%"></stop> </linearGradient> <linearGradient x1="8.68515625%" y1="58.5333771%" x2="94.6151042%" y2="38.4446747%" id="linearGradient-2"> <stop stop-color="#0FA8E0" offset="5.92%"></stop> <stop stop-color="#0099F9" offset="53.85%"></stop> <stop stop-color="#0291EB" offset="92.34%"></stop> </linearGradient> <linearGradient x1="-1.7890625%" y1="57.1112275%" x2="95.3828125%" y2="43.6383486%" id="linearGradient-3"> <stop stop-color="#A3CD39" offset="12.26%"></stop> <stop stop-color="#86C339" offset="28.46%"></stop> <stop stop-color="#21A038" offset="86.93%"></stop> </linearGradient> <linearGradient x1="-7.53573668%" y1="40.0647862%" x2="92.4727273%" y2="58.3335383%" id="linearGradient-4"> <stop stop-color="#0291EB" offset="5.66%"></stop> <stop stop-color="#0C8ACB" offset="79%"></stop> </linearGradient> <linearGradient x1="7.91196809%" y1="39.6494555%" x2="100.269415%" y2="62.5737304%" id="linearGradient-5"> <stop stop-color="#F2E913" offset="13.24%"></stop> <stop stop-color="#EBE716" offset="29.77%"></stop> <stop stop-color="#D9E01F" offset="53.06%"></stop> <stop stop-color="#BBD62D" offset="80.23%"></stop> <stop stop-color="#A3CD39" offset="98.29%"></stop> </linearGradient> <linearGradient x1="36.4422981%" y1="103.758511%" x2="60.3298327%" y2="7.31835106%" id="linearGradient-6"> <stop stop-color="#A3CD39" offset="6.98%"></stop> <stop stop-color="#81C55F" offset="25.99%"></stop> <stop stop-color="#0FA8E0" offset="92.16%"></stop> </linearGradient> </defs> <g id="Symbols" stroke="none" stroke-width="1" fill="none" fill-rule="evenodd"> <g id="SB_RUS_RGB-Copy" fill-rule="nonzero"> <polygon id="Path" fill="#21A038" points="46.0543807 4.90726666 48.2015106 3.3080935 41.0132931 3.3080935 41.0132931 12.8874543 48.2015106 12.8874543 48.2015106 11.2882811 43.0670695 11.2882811 43.0670695 8.84248688 47.4546828 8.84248688 47.4546828 7.24331372 43.0670695 7.24331372 43.0670695 4.90726666"></polygon> <path d="M35.5832326,7.03949754 L33.0938066,7.03949754 L33.0938066,4.90726666 L37.0768882,4.90726666 L39.2240181,3.3080935 L31.0400302,3.3080935 L31.0400302,12.8874543 L35.3187311,12.8874543 C37.7148036,12.8874543 39.0995468,11.7899825 39.0995468,9.87724599 C39.0995468,8.0429003 37.8548338,7.03949754 35.5832326,7.03949754 Z M35.2409366,11.2882811 L33.0938066,11.2882811 L33.0938066,8.63867069 L35.2409366,8.63867069 C36.5478852,8.63867069 37.1546828,9.07765941 37.1546828,9.97131499 C37.1546828,10.8649706 36.5012085,11.2882811 35.2409366,11.2882811 Z" id="Shape" fill="#21A038"></path> <path d="M54.0205438,3.3080935 L50.1152568,3.3080935 L50.1152568,12.8874543 L52.1690332,12.8874543 L52.1690332,10.1751312 L54.0361027,10.1751312 C56.5255287,10.1751312 58.0814199,8.85816505 58.0814199,6.74161234 C58.0814199,4.62505963 56.5255287,3.3080935 54.0205438,3.3080935 Z M53.9738671,8.57595802 L52.1534743,8.57595802 L52.1534743,4.90726666 L53.9738671,4.90726666 C55.2963746,4.90726666 56.0120846,5.56574972 56.0120846,6.74161234 C56.0120846,7.91747496 55.2963746,8.57595802 53.9738671,8.57595802 Z" id="Shape" fill="#21A038"></path> <path d="M27.523716,10.8179361 C26.9791541,11.1158213 26.3723565,11.272603 25.75,11.272603 C23.8984894,11.272603 22.560423,9.93995866 22.560423,8.10561298 C22.560423,6.27126729 23.8984894,4.93862299 25.75,4.93862299 C26.4190332,4.92294482 27.0725076,5.14243918 27.6170695,5.53439339 L29.0951662,4.43692161 L29.0951662,4.43692161 L29.0018127,4.3428526 C28.1460725,3.57462236 26.994713,3.18266815 25.6877644,3.18266815 C24.2719033,3.18266815 22.9805136,3.66869137 22.0469789,4.54666879 C21.1134441,5.45600254 20.5844411,6.72593417 20.6155589,8.0429003 C20.6,9.3755446 21.1134441,10.6611544 22.0469789,11.6018445 C23.0271903,12.5268564 24.334139,13.044236 25.6722054,13.0128796 C27.1503021,13.0128796 28.4416918,12.4955001 29.3129909,11.55481 L27.9904834,10.5670854 L27.523716,10.8179361 Z" id="Path" fill="#21A038"></path> <path d="M82.7734139,3.32377166 L82.7734139,12.9031325 L84.8271903,12.9031325 L84.8271903,8.9835904 L89.1992447,8.9835904 L89.1992447,12.9031325 L91.2530211,12.9031325 L91.2530211,3.32377166 L89.1992447,3.32377166 L89.1992447,7.25899189 L84.8271903,7.25899189 L84.8271903,3.32377166 L82.7734139,3.32377166 Z M79.2415408,12.9031325 L81.4042296,12.9031325 L77.3900302,3.32377166 L75.305136,3.32377166 L71.213142,12.9031325 L73.2824773,12.9031325 L74.1070997,10.9747178 L78.4635952,10.9747178 L79.2415408,12.9031325 Z M74.7294562,9.3755446 L76.3164653,5.53439339 L77.8101208,9.3755446 L74.7294562,9.3755446 Z M95.8584592,9.0306249 L97.13429,9.0306249 L100.27719,12.8874543 L102.922205,12.8874543 L98.7212991,7.93315312 L102.393202,3.3080935 L100.043807,3.3080935 L96.9942598,7.41577357 L95.8584592,7.41577357 L95.8584592,3.3080935 L93.8046828,3.3080935 L93.8046828,12.8874543 L95.8584592,12.8874543 L95.8584592,9.0306249 Z M64.4294562,7.0551757 L64.4294562,4.92294482 L69.797281,4.92294482 L69.797281,3.32377166 L62.3756798,3.32377166 L62.3756798,12.9031325 L66.6543807,12.9031325 C69.0504532,12.9031325 70.4351964,11.8056607 70.4351964,9.89292415 C70.4351964,8.05857847 69.1904834,7.0551757 66.9188822,7.0551757 L64.4294562,7.0551757 L64.4294562,7.0551757 Z M64.4294562,11.3039593 L64.4294562,8.65434886 L66.5765861,8.65434886 C67.8835347,8.65434886 68.4903323,9.09333757 68.4903323,9.98699316 C68.4903323,10.8806488 67.8524169,11.3196375 66.5765861,11.3196375 L64.4294562,11.3196375 L64.4294562,11.3039593 Z" id="Shape" fill="#21A038"></path> <g id="Group"> <path d="M14.1897281,3.24538082 C14.563142,3.73140404 14.8743202,4.26446176 15.1388218,4.82887581 L7.95060423,10.1751312 L4.93217523,8.26239466 L4.93217523,5.9733821 L7.93504532,7.87044045 L14.1897281,3.24538082 Z" id="Path" fill="#21A038"></path> <g transform="translate(0.000000, 0.156782)" id="Path"> <path d="M1.86706949,7.94883129 C1.86706949,7.83908412 1.86706949,7.74501511 1.8826284,7.63526793 L0.0622356495,7.54119892 C0.0622356495,7.66662426 0.0466767372,7.80772778 0.0466767372,7.93315312 C0.0466767372,10.1280967 0.933534743,12.119224 2.36495468,13.5616155 L3.65634441,12.2603276 C2.55166163,11.1628558 1.86706949,9.64207346 1.86706949,7.94883129 Z" fill="url(#linearGradient-1)"></path> <path d="M7.93504532,1.83434568 C8.0439577,1.83434568 8.13731118,1.83434568 8.24622356,1.85002385 L8.33957704,0.0156781682 C8.21510574,0.0156781682 8.07507553,-2.22800171e-15 7.95060423,-2.22800171e-15 C5.7723565,-2.22800171e-15 3.79637462,0.893655589 2.36495468,2.33604707 L3.65634441,3.63733503 C4.74546828,2.52418509 6.27024169,1.83434568 7.93504532,1.83434568 Z" fill="url(#linearGradient-2)"></path> <path d="M7.93504532,14.0633169 C7.82613293,14.0633169 7.73277946,14.0633169 7.62386707,14.0476387 L7.5305136,15.8819844 C7.65498489,15.8819844 7.79501511,15.8976626 7.9194864,15.8976626 C10.0977341,15.8976626 12.073716,15.004007 13.505136,13.5616155 L12.2137462,12.2603276 C11.1246224,13.3891557 9.61540785,14.0633169 7.93504532,14.0633169 Z" fill="url(#linearGradient-3)"></path> </g> <g id="Path"> <path d="M11.358006,3.0572428 L12.8983384,1.91273652 C11.544713,0.815264748 9.81767372,0.141103514 7.93504532,0.141103514 L7.93504532,0.141103514 L7.93504532,1.9754492 C9.21087613,1.99112737 10.3933535,2.38308157 11.358006,3.0572428 Z" fill="url(#linearGradient-4)"></path> <path d="M15.8389728,8.10561298 C15.8389728,7.61958976 15.7922961,7.14924471 15.7145015,6.67889967 L14.0185801,7.94883129 C14.0185801,7.9958658 14.0185801,8.05857847 14.0185801,8.10561298 C14.0185801,9.90860232 13.2406344,11.5234536 12.0114804,12.6366036 L13.2406344,14.0006042 C14.8276435,12.5582128 15.8389728,10.44166 15.8389728,8.10561298 Z" fill="#21A038"></path> <path d="M7.93504532,14.2200986 C6.14577039,14.2200986 4.54320242,13.4361902 3.43851964,12.1976149 L2.08489426,13.4361902 C3.53187311,15.0510415 5.61676737,16.0544443 7.93504532,16.0544443 L7.93504532,14.2200986 L7.93504532,14.2200986 Z" fill="url(#linearGradient-5)"></path> <path d="M3.87416918,3.57462236 L2.64501511,2.21062172 C1.04244713,3.66869137 0.0466767372,5.76956591 0.0466767372,8.10561298 L1.86706949,8.10561298 C1.86706949,6.3183018 2.64501511,4.6877723 3.87416918,3.57462236 Z" fill="url(#linearGradient-6)"></path> </g> </g> </g> </g> </svg>