<svg width="38" height="50" viewBox="0 0 38 50" fill="none" xmlns="http://www.w3.org/2000/svg">
<path d="M37.5718 12.1477L25.8798 0.429199C25.6068 0.155566 25.2343 0 24.8462 0H4.38462C1.96694 0 0 1.97139 0 4.39453V45.6055C0 48.0286 1.96694 50 4.38462 50H33.6154C36.0331 50 38 48.0286 38 45.6055V13.1836C38 12.7842 37.8327 12.4091 37.5718 12.1477ZM26.3077 5.00127L33.01 11.7188H27.7692C26.9633 11.7188 26.3077 11.0616 26.3077 10.2539V5.00127ZM33.6154 47.0703H4.38462C3.57872 47.0703 2.92308 46.4132 2.92308 45.6055V4.39453C2.92308 3.58682 3.57872 2.92969 4.38462 2.92969H23.3846V10.2539C23.3846 12.6771 25.3516 14.6484 27.7692 14.6484H35.0769V45.6055C35.0769 46.4132 34.4213 47.0703 33.6154 47.0703Z" fill="#4780C5"/>
<path d="M27.7692 20.7031H10.2308C9.42361 20.7031 8.76923 21.359 8.76923 22.168C8.76923 22.977 9.42361 23.6328 10.2308 23.6328H27.7692C28.5764 23.6328 29.2308 22.977 29.2308 22.168C29.2308 21.359 28.5764 20.7031 27.7692 20.7031Z" fill="#4780C5"/>
<path d="M27.7692 26.5625H10.2308C9.42361 26.5625 8.76923 27.2184 8.76923 28.0273C8.76923 28.8363 9.42361 29.4922 10.2308 29.4922H27.7692C28.5764 29.4922 29.2308 28.8363 29.2308 28.0273C29.2308 27.2184 28.5764 26.5625 27.7692 26.5625Z" fill="#4780C5"/>
<path d="M27.7692 32.4219H10.2308C9.42361 32.4219 8.76923 33.0777 8.76923 33.8867C8.76923 34.6957 9.42361 35.3516 10.2308 35.3516H27.7692C28.5764 35.3516 29.2308 34.6957 29.2308 33.8867C29.2308 33.0777 28.5764 32.4219 27.7692 32.4219Z" fill="#4780C5"/>
<path d="M21.9231 38.2812H10.2308C9.42361 38.2812 8.76923 38.9371 8.76923 39.7461C8.76923 40.5551 9.42361 41.2109 10.2308 41.2109H21.9231C22.7302 41.2109 23.3846 40.5551 23.3846 39.7461C23.3846 38.9371 22.7302 38.2812 21.9231 38.2812Z" fill="#4780C5"/>
</svg>
