<svg xmlns="http://www.w3.org/2000/svg" width="20.782" height="21.001" viewBox="0 0 20.782 21.001"><g transform="translate(-0.282 0.501)"><rect width="20" height="20" transform="translate(0.282 0.5)" fill="none"/><path d="M8.271,14.558S6.7,13.641,6.293,13.42A1.154,1.154,0,0,0,5.2,13.3c-.39.244-3.663,2.47-3.939,2.668a.969.969,0,0,0-.029,1.314c.377.553,2.119,2.738,2.857,2.714S7.9,19.906,13.7,13.98s5.862-9.067,5.885-9.822-2.113-2.536-2.654-2.922a.93.93,0,0,0-1.286.031c-.218.309-2.371,3.646-2.608,4.028a1.213,1.213,0,0,0,.114,1.116c.215.42,1.113,2.022,1.113,2.022a19.566,19.566,0,0,1-2.772,3.29A19.416,19.416,0,0,1,8.271,14.558Z" transform="translate(0.483 -0.5)" fill="none" stroke="#fff" stroke-miterlimit="10" stroke-width="2"/></g></svg>