<svg xmlns="http://www.w3.org/2000/svg" width="180.5" height="81" viewBox="0 0 180.5 81"><g transform="translate(-114.5 -19.5)"><g transform="translate(114.5 19.5)"><g transform="translate(0.5 0.5)"><path d="M28.184,66.684,7.421,54.7.5,50.7V90.66l6.921,4V62.688L28.184,74.676v31.968l6.921,4V70.68Z" transform="translate(-0.5 -30.64)" fill="#4780c5" stroke="#4680c5" stroke-linejoin="round" stroke-width="1"/><path d="M42.061,156.684l-6.921-4V140.7l6.921,4Z" transform="translate(-21.298 -84.676)" fill="#4780c5" stroke="#4680c5" stroke-linejoin="round" stroke-width="1"/><path d="M87.1,70.68v39.96l34.609-19.98V50.7Zm27.684,15.984L94.005,98.652V90.66l20.779-11.988Zm0-15.984L94.005,82.668V74.676l20.779-11.988Z" transform="translate(-52.495 -30.64)" fill="#4780c5" stroke="#4680c5" stroke-linejoin="round" stroke-width="1"/><path d="M35.105,40.46.5,20.48,35.105.5,69.711,20.48Z" transform="translate(-0.5 -0.5)" fill="none" stroke="#4680c5" stroke-linejoin="round" stroke-width="1"/></g></g><path d="M1.476-.035H3.72V-10.679H9.3V-.035h2.244V-12.6H1.476Zm12.3-2.459A2.525,2.525,0,0,0,16.464.127a4.09,4.09,0,0,0,2.118-.61,3.969,3.969,0,0,0,.485-.305c.215-.144.646-.485.7-.539H19.8V-.035h2.136v-5.69c0-2.172-1.292-3.267-3.518-3.267A6.54,6.54,0,0,0,14.49-7.807L15.3-6.479A4.465,4.465,0,0,1,17.882-7.3c1.239,0,1.867.556,1.867,1.687v.2H17.47C15.836-5.42,13.772-4.774,13.772-2.494Zm6-.305a3.947,3.947,0,0,1-1.418.951c-1.059.431-2.423.18-2.334-.9,0-.915.772-1.292,1.759-1.292h1.992Zm4.685,7.252h2.19V.073c0-.126-.036-.718-.036-.951h.036A4.066,4.066,0,0,0,29.317.127a3.285,3.285,0,0,0,2.154-.718,4.984,4.984,0,0,0,1.616-4.093c0-2.8-1.167-4.308-3.267-4.308a3.956,3.956,0,0,0-1.975.628,5.444,5.444,0,0,0-.485.323c-.215.162-.682.574-.736.592h-.036V-8.83H24.452Zm6.372-9.011c0,1.849-.7,2.926-2.082,2.926a3.451,3.451,0,0,1-2.118-.736V-5.94a3.37,3.37,0,0,1,2.387-1.149C30.3-7.089,30.825-6.012,30.825-4.558Zm3.752,2.064A2.525,2.525,0,0,0,37.269.127a4.09,4.09,0,0,0,2.118-.61,3.969,3.969,0,0,0,.485-.305c.215-.144.646-.485.7-.539h.036V-.035h2.136v-5.69c0-2.172-1.292-3.267-3.518-3.267a6.54,6.54,0,0,0-3.931,1.185L36.1-6.479A4.465,4.465,0,0,1,38.687-7.3c1.239,0,1.867.556,1.867,1.687v.2h-2.28C36.64-5.42,34.576-4.774,34.576-2.494Zm6-.305a3.947,3.947,0,0,1-1.418.951c-1.059.431-2.423.18-2.334-.9,0-.915.772-1.292,1.759-1.292h1.992ZM45.149.288C47.5-.627,48.47-2.476,48.775-5.725L48.9-7.089h2.423V-.035h2.19v-8.8H47l-.162,2.3a7.893,7.893,0,0,1-.915,3.787,3.794,3.794,0,0,1-1.651,1.4Zm10.77,0c2.351-.915,3.321-2.764,3.626-6.013l.126-1.364h2.423V-.035h2.19v-8.8H57.768l-.162,2.3a7.893,7.893,0,0,1-.915,3.787,3.794,3.794,0,0,1-1.651,1.4ZM66.24-4.379A4.227,4.227,0,0,0,67.515-.95a4.942,4.942,0,0,0,3.3,1.077A4.815,4.815,0,0,0,74.39-1.381L73.42-2.548a3.577,3.577,0,0,1-2.369.933,2.33,2.33,0,0,1-2.585-2.441h6.157v-.592c0-2.154-.9-4.344-3.913-4.344a4.37,4.37,0,0,0-3.231,1.239A4.6,4.6,0,0,0,66.24-4.379Zm2.244-1.059A2,2,0,0,1,70.638-7.3,1.771,1.771,0,0,1,72.5-5.438ZM76.077.288C78.429-.627,79.4-2.476,79.7-5.725l.126-1.364h2.423V-.035h2.19v-8.8H77.926l-.162,2.3a7.893,7.893,0,0,1-.915,3.787,3.794,3.794,0,0,1-1.651,1.4ZM86.955-.035H90.94c2.154,0,3.536-1.131,3.536-2.926,0-1.867-1.131-2.8-3.411-2.8H89.145V-8.83h-2.19Zm2.172-1.58V-4.181h1.31a5.54,5.54,0,0,1,.844.054,1.147,1.147,0,0,1,.951,1.167c0,.9-.61,1.346-1.849,1.346ZM1.476,14.924h4.9a4.526,4.526,0,0,0,3.967-1.867c.844-1.454.61-4.416-2.1-4.721V8.264a2.7,2.7,0,0,0,2.208-2.746A2.742,2.742,0,0,0,9.374,3.077a5.037,5.037,0,0,0-2.836-.718H1.476Zm2.262-1.813V9.305h2.3c1.526,0,2.3.61,2.3,1.831,0,1.31-.808,1.975-2.441,1.975Zm0-5.511V4.171H5.982c1.364,0,2.046.556,2.046,1.651C8.028,7.1,7.076,7.6,5.856,7.6Zm8.544,2.944a4.171,4.171,0,0,0,4.541,4.541c2.782,0,4.559-1.6,4.559-4.541a4.187,4.187,0,0,0-4.559-4.577A4.2,4.2,0,0,0,12.282,10.544Zm6.767.987A2.146,2.146,0,0,1,16.823,13.4c-1.885,0-2.316-1.58-2.316-2.854A3.782,3.782,0,0,1,15.046,8.5a1.92,1.92,0,0,1,1.777-.844C19.139,7.708,19.336,10.041,19.049,11.531Zm3.734-.969c0,3.285,2.1,4.523,4.4,4.523a4.745,4.745,0,0,0,3.536-1.526l-1.023-1.131a3.191,3.191,0,0,1-2.208.915c-1.669,0-2.477-1.131-2.477-2.8a3.084,3.084,0,0,1,.664-2.01,2.129,2.129,0,0,1,1.759-.826,3.308,3.308,0,0,1,2.136.808l1.077-1.239a4.25,4.25,0,0,0-3.339-1.31,4.385,4.385,0,0,0-3.285,1.239A4.526,4.526,0,0,0,22.783,10.562ZM34.54,14.924h2.19V7.869h2.926V6.128H31.614V7.869H34.54Zm5.906-4.38a4.171,4.171,0,0,0,4.541,4.541c2.782,0,4.559-1.6,4.559-4.541a4.187,4.187,0,0,0-4.559-4.577A4.2,4.2,0,0,0,40.446,10.544Zm6.767.987A2.146,2.146,0,0,1,44.987,13.4c-1.885,0-2.316-1.58-2.316-2.854A3.782,3.782,0,0,1,43.21,8.5a1.92,1.92,0,0,1,1.777-.844C47.3,7.708,47.5,10.041,47.213,11.531Zm4.29,3.393h2.19V11.28h1.239l2.585,3.644h2.5L56.655,10.31l3.339-4.182H57.481L54.932,9.539H53.693V6.128H51.5Zm9.388-2.459a2.525,2.525,0,0,0,2.693,2.621,4.09,4.09,0,0,0,2.118-.61,3.97,3.97,0,0,0,.485-.305c.215-.144.646-.485.7-.539h.036v1.292h2.136V9.233c0-2.172-1.292-3.267-3.518-3.267a6.54,6.54,0,0,0-3.931,1.185l.808,1.328A4.465,4.465,0,0,1,65,7.654c1.239,0,1.867.556,1.867,1.687v.2h-2.28C62.955,9.539,60.891,10.185,60.891,12.464Zm6-.305a3.948,3.948,0,0,1-1.418.951c-1.059.431-2.423.18-2.334-.9,0-.915.772-1.292,1.759-1.292h1.992Z" transform="translate(200.524 57)" fill="#4780c5"/></g></svg>