<svg id="Слой_2" data-name="Слой 2" xmlns="http://www.w3.org/2000/svg" width="180.5" height="81.493" viewBox="0 0 180.5 81.493">
  <g id="Слой_1" data-name="Слой 1" transform="translate(0.5 0.5)">
    <path id="Path_40" data-name="Path 40" d="M28.355,66.783,7.464,54.721.5,50.7V90.906l6.964,4.021V62.762L28.355,74.824v32.165l6.964,4.021V70.8Z" transform="translate(-0.5 -30.516)" fill="#4780c5" stroke="#4780c5" stroke-linejoin="round" stroke-width="1"/>
    <path id="Path_41" data-name="Path 41" d="M42.1,102.968,35.14,98.948V86.886L42.1,90.906ZM56.031,70.8V111.01l34.823-20.1V50.7ZM83.886,86.886,62.979,98.948V90.906L83.886,78.844Zm0-16.083L62.979,82.865V74.824L83.886,62.762Z" transform="translate(-21.213 -30.516)" fill="#4780c5" stroke="#4780c5" stroke-linejoin="round" stroke-width="1"/>
    <path id="Path_42" data-name="Path 42" d="M35.319,40.706.5,20.6,35.319.5,70.137,20.6Z" transform="translate(-0.5 -0.5)" fill="none" stroke="#4780c5" stroke-linejoin="round" stroke-width="1"/>
    <path id="Path_43" data-name="Path 43" d="M194.21,56.78H203.8V73.068h-3.277V59.152h-3.056V73.068H194.21Zm11.539,13.674c0-2.895,2.493-3.783,4.744-4.608V64.761c0-.764-.141-1.267-.8-1.267s-.8.462-.844,1.086l-.06.8-2.855-.121c.1-2.754,1.387-4.021,4.021-4.021,2.352,0,3.438,1.427,3.438,3.538v5.408a19.976,19.976,0,0,0,.2,2.879h-2.714c-.08-.583-.221-1.427-.261-1.673a2.372,2.372,0,0,1-2.252,1.874A2.686,2.686,0,0,1,205.749,70.454Zm4.744,0V67.238c-1.126.639-1.95,1.343-1.95,2.549,0,.828.342,1.311.925,1.311A1.367,1.367,0,0,0,210.494,70.454Zm4.941-9.01h3.015v.864a3.7,3.7,0,0,1,2.473-1.065c1.89.02,2.513,1.85,2.513,3.639v4.543c0,2.215-.824,3.844-2.613,3.844a3.683,3.683,0,0,1-2.372-1.086v4.7h-3.015ZM220.4,69.55V64.681c0-.844-.221-1.528-.9-1.528a1.741,1.741,0,0,0-1.045.442v7.3a1.958,1.958,0,0,0,1.025.346c.708,0,.909-.748.909-1.689Zm4.608.9c0-2.895,2.493-3.783,4.744-4.608V64.761c0-.764-.141-1.267-.784-1.267s-.8.462-.844,1.086l-.06.8-2.855-.121c.1-2.754,1.387-4.021,4.021-4.021,2.352,0,3.438,1.427,3.438,3.538v5.408a19.976,19.976,0,0,0,.2,2.879h-2.714c-.08-.583-.221-1.427-.261-1.673a2.372,2.372,0,0,1-2.252,1.874A2.69,2.69,0,0,1,225.008,70.454Zm4.744,0V67.238c-1.126.639-1.95,1.343-1.95,2.549,0,.828.342,1.311.925,1.311A1.367,1.367,0,0,0,229.752,70.454Zm4.177.563c1.709,0,2.01-.945,2.272-4.547l.342-5.026h7.117V73.068h-3.036V63.535h-1.488l-.241,3.438c-.362,4.925-1.126,6.216-4.463,6.216h-.5Zm11.041,0c1.709,0,2.01-.945,2.272-4.547l.342-5.026H254.7V73.068h-3.036V63.535h-1.488l-.241,3.438c-.362,4.925-1.126,6.216-4.463,6.216h-.5ZM256.55,69.2V65.312c0-2.634,1.367-4.061,3.9-4.061,2.654,0,3.759,1.468,3.759,4.141V67.4h-4.644v2.256c0,1.021.322,1.423.9,1.423s.9-.382.9-1.307v-1.11h2.814V69.67c0,2.328-1.327,3.619-3.739,3.619-2.553-.02-3.9-1.468-3.9-4.085Zm4.825-3.237V64.841c0-1.045-.3-1.427-.925-1.427s-.885.4-.885,1.648v.9Zm3.88,5.05c1.709,0,2.01-.945,2.272-4.547l.342-5.026h7.117V73.068h-3.036V63.535h-1.488l-.241,3.438c-.362,4.925-1.126,6.216-4.463,6.216h-.5Zm11.821-9.573h3.016v4.7h.161c3.216,0,4.825.744,4.825,3.4,0,2.533-1.367,3.518-4.869,3.518h-3.132Zm3.116,9.875c1.568,0,2.131-.4,2.131-1.713s-.543-1.644-2.095-1.669h-.137v3.381Zm-85.981,4.76h4.141c2.814,0,4.986.8,4.986,4.222,0,1.97-.864,3.056-2.372,3.317,1.91.281,2.855,1.648,2.855,3.96,0,3.261-1.669,4.789-4.744,4.789H194.21Zm4.141,6.574c1.689,0,2.091-.784,2.091-2.272s-.764-2.01-2.312-2.01h-.623v4.3Zm.1,7.382c1.669,0,2.191-.828,2.191-2.517,0-1.849-.583-2.634-2.252-2.634h-.885v5.15Zm6.9-1.4V84.462c0-2.553,1.407-3.92,3.92-3.92s3.92,1.367,3.92,3.92v4.169c0,2.549-1.427,3.92-3.92,3.92S205.347,91.2,205.347,88.631Zm4.845.221V84.261c0-.985-.141-1.669-.9-1.669s-.945.7-.945,1.669v4.608c0,.965.161,1.648.945,1.648s.921-.679.921-1.648Zm4.624-.35v-3.92c0-2.553,1.287-4.041,3.88-4.041,2.493,0,3.779,1.206,3.779,3.538v1.106H219.56V83.98c0-1.045-.281-1.347-.844-1.347s-.864.4-.864,1.628v4.588c0,1.242.3,1.588.864,1.588s.844-.4.844-1.351V87.679h2.915v1.287c0,2.336-1.307,3.582-3.779,3.582-2.593.02-3.88-1.528-3.88-4.045Zm10.775-5.669h-2.115V80.743h7.277v2.091h-2.131v9.533h-3.036Zm6.131,5.8V84.462c0-2.553,1.407-3.92,3.92-3.92s3.92,1.367,3.92,3.92v4.169c0,2.549-1.427,3.92-3.92,3.92S231.723,91.2,231.723,88.631Zm4.845.221V84.261c0-.985-.141-1.669-.9-1.669s-.945.7-.945,1.669v4.608c0,.965.161,1.648.945,1.648s.9-.679.9-1.648Zm4.865-8.11h3.016v4.644h.523l1.85-4.644h3.257l-2.332,5.528,2.392,6.1h-3.216l-1.95-5.207h-.523v5.207h-3.016Zm9.549,9.01c0-2.895,2.493-3.783,4.744-4.608V84.06c0-.764-.141-1.266-.784-1.266s-.8.462-.844,1.086l-.06.8-2.855-.121c.1-2.754,1.387-4.021,4.021-4.021,2.352,0,3.438,1.427,3.438,3.538v5.408a19.987,19.987,0,0,0,.2,2.879h-2.714c-.08-.583-.221-1.427-.261-1.673a2.372,2.372,0,0,1-2.252,1.874,2.69,2.69,0,0,1-2.634-2.814Zm4.744,0v-3.2c-1.126.639-1.95,1.343-1.95,2.549,0,.828.342,1.311.925,1.311a1.367,1.367,0,0,0,1.025-.663Z" transform="translate(-105.076 -34.152)" fill="#4780c5"/>
  </g>
</svg>
