<svg xmlns="http://www.w3.org/2000/svg" width="179.5" height="81.046" viewBox="0 0 179.5 81.046"><g transform="translate(0.5 0.5)"><path d="M28.2,66.693,7.425,54.7.5,50.7V90.683l6.925,4V62.695L28.2,74.69v31.986l6.925,4V70.691Z" transform="translate(-0.5 -30.629)" fill="#fff" stroke="#fff" stroke-linejoin="round" stroke-width="1"/><path d="M42.065,102.678l-6.925-4V86.685l6.925,4Zm13.85-31.986v39.983L90.544,90.683V50.7Zm27.7,15.993L62.824,98.68v-8L83.615,78.688Zm0-15.993L62.824,82.686v-8L83.615,62.695Z" transform="translate(-21.29 -30.629)" fill="#fff" stroke="#fff" stroke-linejoin="round" stroke-width="1"/><path d="M35.125,40.483.5,20.491,35.125.5,69.75,20.491Z" transform="translate(-0.5 -0.5)" fill="none" stroke="#fff" stroke-linejoin="round" stroke-width="1"/><path d="M194.21,56.78h9.536v16.2h-3.259V59.139h-3.039V72.977H194.21Zm11.475,13.6c0-2.879,2.479-3.762,4.718-4.582v-1.08c0-.76-.14-1.259-.8-1.259s-.8.46-.84,1.08l-.06.8-2.839-.12c.1-2.739,1.379-4,4-4,2.339,0,3.419,1.419,3.419,3.518v5.378a19.866,19.866,0,0,0,.2,2.863h-2.7c-.08-.58-.22-1.419-.26-1.663a2.358,2.358,0,0,1-2.239,1.863A2.672,2.672,0,0,1,205.685,70.378Zm4.718,0v-3.2c-1.12.636-1.939,1.335-1.939,2.535,0,.824.34,1.3.92,1.3A1.359,1.359,0,0,0,210.4,70.378Zm4.914-8.96h3v.86a3.679,3.679,0,0,1,2.459-1.06c1.879.02,2.5,1.839,2.5,3.618v4.518c0,2.2-.82,3.822-2.6,3.822a3.662,3.662,0,0,1-2.359-1.08v4.678h-3Zm4.938,8.061V64.637c0-.84-.22-1.519-.9-1.519a1.731,1.731,0,0,0-1.04.44v7.257a1.947,1.947,0,0,0,1.02.344c.7,0,.9-.744.9-1.679Zm4.582.9c0-2.879,2.479-3.762,4.718-4.582v-1.08c0-.76-.14-1.259-.78-1.259s-.8.46-.84,1.08l-.06.8-2.839-.12c.1-2.739,1.379-4,4-4,2.339,0,3.419,1.419,3.419,3.518v5.378a19.863,19.863,0,0,0,.2,2.863h-2.7c-.08-.58-.22-1.419-.26-1.663a2.358,2.358,0,0,1-2.239,1.863A2.675,2.675,0,0,1,224.837,70.378Zm4.718,0v-3.2c-1.12.636-1.939,1.335-1.939,2.535,0,.824.34,1.3.92,1.3A1.36,1.36,0,0,0,229.555,70.378Zm4.154.56c1.7,0,2-.94,2.259-4.522l.34-5h7.077V72.977h-3.019V63.5h-1.479l-.24,3.419c-.36,4.9-1.119,6.181-4.438,6.181h-.5Zm10.979,0c1.7,0,2-.94,2.259-4.522l.34-5h7.077V72.977h-3.019V63.5h-1.479l-.24,3.419c-.36,4.9-1.12,6.181-4.438,6.181h-.5Zm11.515-1.8v-3.87c0-2.619,1.359-4.038,3.878-4.038,2.639,0,3.738,1.459,3.738,4.118v2H259.2v2.243c0,1.016.32,1.415.9,1.415s.9-.38.9-1.3V68.6h2.8v1c0,2.315-1.319,3.6-3.718,3.6-2.539-.02-3.878-1.459-3.878-4.062Zm4.8-3.219V64.8c0-1.04-.3-1.419-.92-1.419s-.88.4-.88,1.639v.9Zm3.858,5.022c1.7,0,2-.94,2.259-4.522l.34-5h7.077V72.977h-3.019V63.5h-1.479l-.24,3.419c-.36,4.9-1.12,6.181-4.438,6.181h-.5Zm11.755-9.52h3V66.1h.16c3.2,0,4.8.74,4.8,3.383,0,2.519-1.359,3.5-4.842,3.5h-3.115Zm3.1,9.82c1.559,0,2.119-.4,2.119-1.7s-.54-1.635-2.083-1.659h-.136v3.363Zm-85.5,4.734h4.118c2.8,0,4.958.8,4.958,4.2,0,1.959-.86,3.039-2.359,3.3,1.9.28,2.839,1.639,2.839,3.938,0,3.243-1.659,4.762-4.718,4.762H194.21Zm4.118,6.537c1.679,0,2.079-.78,2.079-2.259s-.76-2-2.3-2h-.62v4.278Zm.1,7.341c1.659,0,2.179-.824,2.179-2.5,0-1.839-.58-2.619-2.239-2.619h-.88V89.85Zm6.857-1.4V84.308c0-2.539,1.4-3.9,3.9-3.9s3.9,1.359,3.9,3.9v4.146a3.522,3.522,0,0,1-3.9,3.9C206.7,92.353,205.285,91.005,205.285,88.454Zm4.818.22V84.108c0-.98-.14-1.659-.9-1.659s-.94.7-.94,1.659V88.69c0,.96.16,1.639.94,1.639s.916-.676.916-1.639Zm4.6-.348v-3.9c0-2.539,1.279-4.018,3.858-4.018,2.479,0,3.758,1.2,3.758,3.519v1.1h-2.9v-1.2c0-1.04-.28-1.339-.84-1.339s-.86.4-.86,1.619V88.67c0,1.235.3,1.579.86,1.579s.84-.4.84-1.343v-1.4h2.9v1.279c0,2.323-1.3,3.562-3.758,3.562-2.579.02-3.858-1.519-3.858-4.022Zm10.715-5.638h-2.1V80.61h7.237v2.079h-2.119v9.48h-3.019Zm6.1,5.766V84.308c0-2.539,1.4-3.9,3.9-3.9s3.9,1.359,3.9,3.9v4.146a3.522,3.522,0,0,1-3.9,3.9C232.934,92.353,231.514,91.005,231.514,88.454Zm4.818.22V84.108c0-.98-.14-1.659-.9-1.659s-.94.7-.94,1.659V88.69c0,.96.16,1.639.94,1.639s.9-.676.9-1.639Zm4.838-8.065h3v4.618h.52l1.839-4.618h3.239l-2.319,5.5,2.379,6.061h-3.2l-1.939-5.178h-.52v5.178h-3Zm9.5,8.96c0-2.879,2.479-3.762,4.718-4.582v-1.08c0-.76-.14-1.259-.78-1.259s-.8.46-.84,1.08l-.06.8-2.839-.12c.1-2.739,1.379-4,4-4,2.339,0,3.419,1.419,3.419,3.519v5.378a19.874,19.874,0,0,0,.2,2.863h-2.7c-.08-.58-.22-1.419-.26-1.663a2.358,2.358,0,0,1-2.239,1.863,2.675,2.675,0,0,1-2.619-2.8Zm4.718,0V86.391c-1.12.636-1.939,1.335-1.939,2.535,0,.824.34,1.3.92,1.3A1.359,1.359,0,0,0,255.384,89.57Z" transform="translate(-105.572 -34.278)" fill="#fff"/></g></svg>